<svg width="745" height="531" viewBox="0 0 745 531" fill="none" xmlns="http://www.w3.org/2000/svg">
<g filter="url(#filter0_d_357_178)">
<path d="M70.9804 182H6.00039V37.46H70.9804V86.24L42.1804 71.84V59.24H34.8004V160.22H42.1804V79.94L70.9804 94.34V182ZM139.626 182H74.6465V37.46H139.626V182ZM110.826 160.22V59.24H103.446V160.22H110.826ZM244.453 182H215.473V64.28L208.273 67.88V182H179.473V67.88L172.093 64.28V182H143.293V37.46H167.233L193.873 50.78L220.513 37.46H244.453V182ZM276.774 182H247.974V37.46H276.774V182ZM345.389 182H316.589V67.88L309.209 64.28V182H280.409V37.46H304.349L316.589 43.58V37.46H345.389V182ZM414.035 182H349.055V37.46H414.035V86.24L385.235 71.84V59.24H377.855V160.22H385.235V104.24L381.635 102.26V78.14L414.035 94.34V182ZM533.925 182H468.945V111.44L497.745 125.84V160.22H505.125V121.34L468.945 103.34V37.46H533.925V103.52L505.125 89.12V59.24H497.745V93.44L533.925 111.62V182ZM602.571 182H537.591V37.46H602.571V182ZM573.771 160.22V59.24H566.391V160.22H573.771ZM671.217 182H606.237V37.46H671.217V182ZM642.417 160.22V59.24H635.037V160.22H642.417ZM739.863 182H711.063V67.88L703.683 64.28V182H674.883V37.46H698.823L711.063 43.58V37.46H739.863V182Z" fill="white"/>
</g>
<g filter="url(#filter1_d_357_178)">
<mask id="path-2-outside-1_357_178" maskUnits="userSpaceOnUse" x="3.40039" y="195" width="737" height="147" fill="black">
<rect fill="white" x="3.40039" y="195" width="737" height="147"/>
<path d="M69.9804 341H5.00039V196.46H69.9804V245.24L41.1804 230.84V218.24H33.8004V319.22H41.1804V238.94L69.9804 253.34V341ZM138.626 341H73.6465V196.46H138.626V341ZM109.826 319.22V218.24H102.446V319.22H109.826ZM243.453 341H214.473V223.28L207.273 226.88V341H178.473V226.88L171.093 223.28V341H142.293V196.46H166.233L192.873 209.78L219.513 196.46H243.453V341ZM275.774 341H246.974V196.46H275.774V341ZM344.389 341H315.589V226.88L308.209 223.28V341H279.409V196.46H303.349L315.589 202.58V196.46H344.389V341ZM413.035 341H348.055V196.46H413.035V245.24L384.235 230.84V218.24H376.855V319.22H384.235V263.24L380.635 261.26V237.14L413.035 253.34V341ZM532.925 341H467.945V270.44L496.745 284.84V319.22H504.125V280.34L467.945 262.34V196.46H532.925V262.52L504.125 248.12V218.24H496.745V252.44L532.925 270.62V341ZM601.571 341H536.591V196.46H601.571V341ZM572.771 319.22V218.24H565.391V319.22H572.771ZM670.217 341H605.237V196.46H670.217V341ZM641.417 319.22V218.24H634.037V319.22H641.417ZM738.863 341H710.063V226.88L702.683 223.28V341H673.883V196.46H697.823L710.063 202.58V196.46H738.863V341Z"/>
</mask>
<path d="M69.9804 341V342H70.9804V341H69.9804ZM5.00039 341H4.00039V342H5.00039V341ZM5.00039 196.46V195.46H4.00039V196.46H5.00039ZM69.9804 196.46H70.9804V195.46H69.9804V196.46ZM69.9804 245.24L69.5332 246.134L70.9804 246.858V245.24H69.9804ZM41.1804 230.84H40.1804V231.458L40.7332 231.734L41.1804 230.84ZM41.1804 218.24H42.1804V217.24H41.1804V218.24ZM33.8004 218.24V217.24H32.8004V218.24H33.8004ZM33.8004 319.22H32.8004V320.22H33.8004V319.22ZM41.1804 319.22V320.22H42.1804V319.22H41.1804ZM41.1804 238.94L41.6276 238.046L40.1804 237.322V238.94H41.1804ZM69.9804 253.34H70.9804V252.722L70.4276 252.446L69.9804 253.34ZM69.9804 341V340H5.00039V341V342H69.9804V341ZM5.00039 341H6.00039V196.46H5.00039H4.00039V341H5.00039ZM5.00039 196.46V197.46H69.9804V196.46V195.46H5.00039V196.46ZM69.9804 196.46H68.9804V245.24H69.9804H70.9804V196.46H69.9804ZM69.9804 245.24L70.4276 244.346L41.6276 229.946L41.1804 230.84L40.7332 231.734L69.5332 246.134L69.9804 245.24ZM41.1804 230.84H42.1804V218.24H41.1804H40.1804V230.84H41.1804ZM41.1804 218.24V217.24H33.8004V218.24V219.24H41.1804V218.24ZM33.8004 218.24H32.8004V319.22H33.8004H34.8004V218.24H33.8004ZM33.8004 319.22V320.22H41.1804V319.22V318.22H33.8004V319.22ZM41.1804 319.22H42.1804V238.94H41.1804H40.1804V319.22H41.1804ZM41.1804 238.94L40.7332 239.834L69.5332 254.234L69.9804 253.34L70.4276 252.446L41.6276 238.046L41.1804 238.94ZM69.9804 253.34H68.9804V341H69.9804H70.9804V253.34H69.9804ZM138.626 341V342H139.626V341H138.626ZM73.6465 341H72.6465V342H73.6465V341ZM73.6465 196.46V195.46H72.6465V196.46H73.6465ZM138.626 196.46H139.626V195.46H138.626V196.46ZM109.826 319.22V320.22H110.826V319.22H109.826ZM109.826 218.24H110.826V217.24H109.826V218.24ZM102.446 218.24V217.24H101.446V218.24H102.446ZM102.446 319.22H101.446V320.22H102.446V319.22ZM138.626 341V340H73.6465V341V342H138.626V341ZM73.6465 341H74.6465V196.46H73.6465H72.6465V341H73.6465ZM73.6465 196.46V197.46H138.626V196.46V195.46H73.6465V196.46ZM138.626 196.46H137.626V341H138.626H139.626V196.46H138.626ZM109.826 319.22H110.826V218.24H109.826H108.826V319.22H109.826ZM109.826 218.24V217.24H102.446V218.24V219.24H109.826V218.24ZM102.446 218.24H101.446V319.22H102.446H103.446V218.24H102.446ZM102.446 319.22V320.22H109.826V319.22V318.22H102.446V319.22ZM243.453 341V342H244.453V341H243.453ZM214.473 341H213.473V342H214.473V341ZM214.473 223.28H215.473V221.662L214.025 222.386L214.473 223.28ZM207.273 226.88L206.825 225.986L206.273 226.262V226.88H207.273ZM207.273 341V342H208.273V341H207.273ZM178.473 341H177.473V342H178.473V341ZM178.473 226.88H179.473V226.255L178.911 225.981L178.473 226.88ZM171.093 223.28L171.531 222.381L170.093 221.68V223.28H171.093ZM171.093 341V342H172.093V341H171.093ZM142.293 341H141.293V342H142.293V341ZM142.293 196.46V195.46H141.293V196.46H142.293ZM166.233 196.46L166.68 195.566L166.469 195.46H166.233V196.46ZM192.873 209.78L192.425 210.674L192.873 210.898L193.32 210.674L192.873 209.78ZM219.513 196.46V195.46H219.277L219.065 195.566L219.513 196.46ZM243.453 196.46H244.453V195.46H243.453V196.46ZM243.453 341V340H214.473V341V342H243.453V341ZM214.473 341H215.473V223.28H214.473H213.473V341H214.473ZM214.473 223.28L214.025 222.386L206.825 225.986L207.273 226.88L207.72 227.774L214.92 224.174L214.473 223.28ZM207.273 226.88H206.273V341H207.273H208.273V226.88H207.273ZM207.273 341V340H178.473V341V342H207.273V341ZM178.473 341H179.473V226.88H178.473H177.473V341H178.473ZM178.473 226.88L178.911 225.981L171.531 222.381L171.093 223.28L170.654 224.179L178.034 227.779L178.473 226.88ZM171.093 223.28H170.093V341H171.093H172.093V223.28H171.093ZM171.093 341V340H142.293V341V342H171.093V341ZM142.293 341H143.293V196.46H142.293H141.293V341H142.293ZM142.293 196.46V197.46H166.233V196.46V195.46H142.293V196.46ZM166.233 196.46L165.785 197.354L192.425 210.674L192.873 209.78L193.32 208.886L166.68 195.566L166.233 196.46ZM192.873 209.78L193.32 210.674L219.96 197.354L219.513 196.46L219.065 195.566L192.425 208.886L192.873 209.78ZM219.513 196.46V197.46H243.453V196.46V195.46H219.513V196.46ZM243.453 196.46H242.453V341H243.453H244.453V196.46H243.453ZM275.774 341V342H276.774V341H275.774ZM246.974 341H245.974V342H246.974V341ZM246.974 196.46V195.46H245.974V196.46H246.974ZM275.774 196.46H276.774V195.46H275.774V196.46ZM275.774 341V340H246.974V341V342H275.774V341ZM246.974 341H247.974V196.46H246.974H245.974V341H246.974ZM246.974 196.46V197.46H275.774V196.46V195.46H246.974V196.46ZM275.774 196.46H274.774V341H275.774H276.774V196.46H275.774ZM344.389 341V342H345.389V341H344.389ZM315.589 341H314.589V342H315.589V341ZM315.589 226.88H316.589V226.255L316.027 225.981L315.589 226.88ZM308.209 223.28L308.647 222.381L307.209 221.68V223.28H308.209ZM308.209 341V342H309.209V341H308.209ZM279.409 341H278.409V342H279.409V341ZM279.409 196.46V195.46H278.409V196.46H279.409ZM303.349 196.46L303.796 195.566L303.585 195.46H303.349V196.46ZM315.589 202.58L315.142 203.474L316.589 204.198V202.58H315.589ZM315.589 196.46V195.46H314.589V196.46H315.589ZM344.389 196.46H345.389V195.46H344.389V196.46ZM344.389 341V340H315.589V341V342H344.389V341ZM315.589 341H316.589V226.88H315.589H314.589V341H315.589ZM315.589 226.88L316.027 225.981L308.647 222.381L308.209 223.28L307.771 224.179L315.151 227.779L315.589 226.88ZM308.209 223.28H307.209V341H308.209H309.209V223.28H308.209ZM308.209 341V340H279.409V341V342H308.209V341ZM279.409 341H280.409V196.46H279.409H278.409V341H279.409ZM279.409 196.46V197.46H303.349V196.46V195.46H279.409V196.46ZM303.349 196.46L302.902 197.354L315.142 203.474L315.589 202.58L316.036 201.686L303.796 195.566L303.349 196.46ZM315.589 202.58H316.589V196.46H315.589H314.589V202.58H315.589ZM315.589 196.46V197.46H344.389V196.46V195.46H315.589V196.46ZM344.389 196.46H343.389V341H344.389H345.389V196.46H344.389ZM413.035 341V342H414.035V341H413.035ZM348.055 341H347.055V342H348.055V341ZM348.055 196.46V195.46H347.055V196.46H348.055ZM413.035 196.46H414.035V195.46H413.035V196.46ZM413.035 245.24L412.588 246.134L414.035 246.858V245.24H413.035ZM384.235 230.84H383.235V231.458L383.788 231.734L384.235 230.84ZM384.235 218.24H385.235V217.24H384.235V218.24ZM376.855 218.24V217.24H375.855V218.24H376.855ZM376.855 319.22H375.855V320.22H376.855V319.22ZM384.235 319.22V320.22H385.235V319.22H384.235ZM384.235 263.24H385.235V262.649L384.717 262.364L384.235 263.24ZM380.635 261.26H379.635V261.851L380.153 262.136L380.635 261.26ZM380.635 237.14L381.082 236.246L379.635 235.522V237.14H380.635ZM413.035 253.34H414.035V252.722L413.482 252.446L413.035 253.34ZM413.035 341V340H348.055V341V342H413.035V341ZM348.055 341H349.055V196.46H348.055H347.055V341H348.055ZM348.055 196.46V197.46H413.035V196.46V195.46H348.055V196.46ZM413.035 196.46H412.035V245.24H413.035H414.035V196.46H413.035ZM413.035 245.24L413.482 244.346L384.682 229.946L384.235 230.84L383.788 231.734L412.588 246.134L413.035 245.24ZM384.235 230.84H385.235V218.24H384.235H383.235V230.84H384.235ZM384.235 218.24V217.24H376.855V218.24V219.24H384.235V218.24ZM376.855 218.24H375.855V319.22H376.855H377.855V218.24H376.855ZM376.855 319.22V320.22H384.235V319.22V318.22H376.855V319.22ZM384.235 319.22H385.235V263.24H384.235H383.235V319.22H384.235ZM384.235 263.24L384.717 262.364L381.117 260.384L380.635 261.26L380.153 262.136L383.753 264.116L384.235 263.24ZM380.635 261.26H381.635V237.14H380.635H379.635V261.26H380.635ZM380.635 237.14L380.188 238.034L412.588 254.234L413.035 253.34L413.482 252.446L381.082 236.246L380.635 237.14ZM413.035 253.34H412.035V341H413.035H414.035V253.34H413.035ZM532.925 341V342H533.925V341H532.925ZM467.945 341H466.945V342H467.945V341ZM467.945 270.44L468.392 269.546L466.945 268.822V270.44H467.945ZM496.745 284.84H497.745V284.222L497.192 283.946L496.745 284.84ZM496.745 319.22H495.745V320.22H496.745V319.22ZM504.125 319.22V320.22H505.125V319.22H504.125ZM504.125 280.34H505.125V279.721L504.57 279.445L504.125 280.34ZM467.945 262.34H466.945V262.959L467.499 263.235L467.945 262.34ZM467.945 196.46V195.46H466.945V196.46H467.945ZM532.925 196.46H533.925V195.46H532.925V196.46ZM532.925 262.52L532.478 263.414L533.925 264.138V262.52H532.925ZM504.125 248.12H503.125V248.738L503.678 249.014L504.125 248.12ZM504.125 218.24H505.125V217.24H504.125V218.24ZM496.745 218.24V217.24H495.745V218.24H496.745ZM496.745 252.44H495.745V253.057L496.296 253.334L496.745 252.44ZM532.925 270.62H533.925V270.003L533.374 269.726L532.925 270.62ZM532.925 341V340H467.945V341V342H532.925V341ZM467.945 341H468.945V270.44H467.945H466.945V341H467.945ZM467.945 270.44L467.498 271.334L496.298 285.734L496.745 284.84L497.192 283.946L468.392 269.546L467.945 270.44ZM496.745 284.84H495.745V319.22H496.745H497.745V284.84H496.745ZM496.745 319.22V320.22H504.125V319.22V318.22H496.745V319.22ZM504.125 319.22H505.125V280.34H504.125H503.125V319.22H504.125ZM504.125 280.34L504.57 279.445L468.39 261.445L467.945 262.34L467.499 263.235L503.679 281.235L504.125 280.34ZM467.945 262.34H468.945V196.46H467.945H466.945V262.34H467.945ZM467.945 196.46V197.46H532.925V196.46V195.46H467.945V196.46ZM532.925 196.46H531.925V262.52H532.925H533.925V196.46H532.925ZM532.925 262.52L533.372 261.626L504.572 247.226L504.125 248.12L503.678 249.014L532.478 263.414L532.925 262.52ZM504.125 248.12H505.125V218.24H504.125H503.125V248.12H504.125ZM504.125 218.24V217.24H496.745V218.24V219.24H504.125V218.24ZM496.745 218.24H495.745V252.44H496.745H497.745V218.24H496.745ZM496.745 252.44L496.296 253.334L532.476 271.514L532.925 270.62L533.374 269.726L497.194 251.546L496.745 252.44ZM532.925 270.62H531.925V341H532.925H533.925V270.62H532.925ZM601.571 341V342H602.571V341H601.571ZM536.591 341H535.591V342H536.591V341ZM536.591 196.46V195.46H535.591V196.46H536.591ZM601.571 196.46H602.571V195.46H601.571V196.46ZM572.771 319.22V320.22H573.771V319.22H572.771ZM572.771 218.24H573.771V217.24H572.771V218.24ZM565.391 218.24V217.24H564.391V218.24H565.391ZM565.391 319.22H564.391V320.22H565.391V319.22ZM601.571 341V340H536.591V341V342H601.571V341ZM536.591 341H537.591V196.46H536.591H535.591V341H536.591ZM536.591 196.46V197.46H601.571V196.46V195.46H536.591V196.46ZM601.571 196.46H600.571V341H601.571H602.571V196.46H601.571ZM572.771 319.22H573.771V218.24H572.771H571.771V319.22H572.771ZM572.771 218.24V217.24H565.391V218.24V219.24H572.771V218.24ZM565.391 218.24H564.391V319.22H565.391H566.391V218.24H565.391ZM565.391 319.22V320.22H572.771V319.22V318.22H565.391V319.22ZM670.217 341V342H671.217V341H670.217ZM605.237 341H604.237V342H605.237V341ZM605.237 196.46V195.46H604.237V196.46H605.237ZM670.217 196.46H671.217V195.46H670.217V196.46ZM641.417 319.22V320.22H642.417V319.22H641.417ZM641.417 218.24H642.417V217.24H641.417V218.24ZM634.037 218.24V217.24H633.037V218.24H634.037ZM634.037 319.22H633.037V320.22H634.037V319.22ZM670.217 341V340H605.237V341V342H670.217V341ZM605.237 341H606.237V196.46H605.237H604.237V341H605.237ZM605.237 196.46V197.46H670.217V196.46V195.46H605.237V196.46ZM670.217 196.46H669.217V341H670.217H671.217V196.46H670.217ZM641.417 319.22H642.417V218.24H641.417H640.417V319.22H641.417ZM641.417 218.24V217.24H634.037V218.24V219.24H641.417V218.24ZM634.037 218.24H633.037V319.22H634.037H635.037V218.24H634.037ZM634.037 319.22V320.22H641.417V319.22V318.22H634.037V319.22ZM738.863 341V342H739.863V341H738.863ZM710.063 341H709.063V342H710.063V341ZM710.063 226.88H711.063V226.255L710.502 225.981L710.063 226.88ZM702.683 223.28L703.122 222.381L701.683 221.68V223.28H702.683ZM702.683 341V342H703.683V341H702.683ZM673.883 341H672.883V342H673.883V341ZM673.883 196.46V195.46H672.883V196.46H673.883ZM697.823 196.46L698.27 195.566L698.059 195.46H697.823V196.46ZM710.063 202.58L709.616 203.474L711.063 204.198V202.58H710.063ZM710.063 196.46V195.46H709.063V196.46H710.063ZM738.863 196.46H739.863V195.46H738.863V196.46ZM738.863 341V340H710.063V341V342H738.863V341ZM710.063 341H711.063V226.88H710.063H709.063V341H710.063ZM710.063 226.88L710.502 225.981L703.122 222.381L702.683 223.28L702.245 224.179L709.625 227.779L710.063 226.88ZM702.683 223.28H701.683V341H702.683H703.683V223.28H702.683ZM702.683 341V340H673.883V341V342H702.683V341ZM673.883 341H674.883V196.46H673.883H672.883V341H673.883ZM673.883 196.46V197.46H697.823V196.46V195.46H673.883V196.46ZM697.823 196.46L697.376 197.354L709.616 203.474L710.063 202.58L710.51 201.686L698.27 195.566L697.823 196.46ZM710.063 202.58H711.063V196.46H710.063H709.063V202.58H710.063ZM710.063 196.46V197.46H738.863V196.46V195.46H710.063V196.46ZM738.863 196.46H737.863V341H738.863H739.863V196.46H738.863Z" fill="#E7E7E7" mask="url(#path-2-outside-1_357_178)"/>
</g>
<g filter="url(#filter2_d_357_178)">
<path d="M69.9804 502H5.00039V357.46H69.9804V406.24L41.1804 391.84V379.24H33.8004V480.22H41.1804V399.94L69.9804 414.34V502ZM138.626 502H73.6465V357.46H138.626V502ZM109.826 480.22V379.24H102.446V480.22H109.826ZM243.453 502H214.473V384.28L207.273 387.88V502H178.473V387.88L171.093 384.28V502H142.293V357.46H166.233L192.873 370.78L219.513 357.46H243.453V502ZM275.774 502H246.974V357.46H275.774V502ZM344.389 502H315.589V387.88L308.209 384.28V502H279.409V357.46H303.349L315.589 363.58V357.46H344.389V502ZM413.035 502H348.055V357.46H413.035V406.24L384.235 391.84V379.24H376.855V480.22H384.235V424.24L380.635 422.26V398.14L413.035 414.34V502ZM532.925 502H467.945V431.44L496.745 445.84V480.22H504.125V441.34L467.945 423.34V357.46H532.925V423.52L504.125 409.12V379.24H496.745V413.44L532.925 431.62V502ZM601.571 502H536.591V357.46H601.571V502ZM572.771 480.22V379.24H565.391V480.22H572.771ZM670.217 502H605.237V357.46H670.217V502ZM641.417 480.22V379.24H634.037V480.22H641.417ZM738.863 502H710.063V387.88L702.683 384.28V502H673.883V357.46H697.823L710.063 363.58V357.46H738.863V502Z" fill="white"/>
</g>
<defs>
<filter id="filter0_d_357_178" x="2" y="37.46" width="741.863" height="152.54" filterUnits="userSpaceOnUse" color-interpolation-filters="sRGB">
<feFlood flood-opacity="0" result="BackgroundImageFix"/>
<feColorMatrix in="SourceAlpha" type="matrix" values="0 0 0 0 0 0 0 0 0 0 0 0 0 0 0 0 0 0 127 0" result="hardAlpha"/>
<feOffset dy="4"/>
<feGaussianBlur stdDeviation="2"/>
<feComposite in2="hardAlpha" operator="out"/>
<feColorMatrix type="matrix" values="0 0 0 0 0 0 0 0 0 0 0 0 0 0 0 0 0 0 0.25 0"/>
<feBlend mode="normal" in2="BackgroundImageFix" result="effect1_dropShadow_357_178"/>
<feBlend mode="normal" in="SourceGraphic" in2="effect1_dropShadow_357_178" result="shape"/>
</filter>
<filter id="filter1_d_357_178" x="0" y="195.46" width="743.863" height="154.54" filterUnits="userSpaceOnUse" color-interpolation-filters="sRGB">
<feFlood flood-opacity="0" result="BackgroundImageFix"/>
<feColorMatrix in="SourceAlpha" type="matrix" values="0 0 0 0 0 0 0 0 0 0 0 0 0 0 0 0 0 0 127 0" result="hardAlpha"/>
<feOffset dy="4"/>
<feGaussianBlur stdDeviation="2"/>
<feComposite in2="hardAlpha" operator="out"/>
<feColorMatrix type="matrix" values="0 0 0 0 0 0 0 0 0 0 0 0 0 0 0 0 0 0 0.25 0"/>
<feBlend mode="normal" in2="BackgroundImageFix" result="effect1_dropShadow_357_178"/>
<feBlend mode="normal" in="SourceGraphic" in2="effect1_dropShadow_357_178" result="shape"/>
</filter>
<filter id="filter2_d_357_178" x="1" y="357.46" width="741.863" height="152.54" filterUnits="userSpaceOnUse" color-interpolation-filters="sRGB">
<feFlood flood-opacity="0" result="BackgroundImageFix"/>
<feColorMatrix in="SourceAlpha" type="matrix" values="0 0 0 0 0 0 0 0 0 0 0 0 0 0 0 0 0 0 127 0" result="hardAlpha"/>
<feOffset dy="4"/>
<feGaussianBlur stdDeviation="2"/>
<feComposite in2="hardAlpha" operator="out"/>
<feColorMatrix type="matrix" values="0 0 0 0 0 0 0 0 0 0 0 0 0 0 0 0 0 0 0.25 0"/>
<feBlend mode="normal" in2="BackgroundImageFix" result="effect1_dropShadow_357_178"/>
<feBlend mode="normal" in="SourceGraphic" in2="effect1_dropShadow_357_178" result="shape"/>
</filter>
</defs>
</svg>
