<svg width="1887" height="1002" viewBox="0 0 1887 1002" fill="none" xmlns="http://www.w3.org/2000/svg">
<g opacity="0.24">
<mask id="path-1-outside-1_73_211" maskUnits="userSpaceOnUse" x="0" y="-39" width="1919" height="1041" fill="black">
<rect fill="white" y="-39" width="1919" height="1041"/>
<path d="M84.5415 285.429H9V-37H84.5415V71.8146L51.0605 39.6922V11.5851H42.481V236.843H51.0605V57.7611L84.5415 89.8835V285.429Z"/>
<path d="M168.53 285.429H135.049V140.476L126.47 124.014V285.429H92.9886V-37H168.53V285.429ZM135.049 71.8146V11.5851H126.47V55.7534L135.049 71.8146Z"/>
<path d="M176.977 -36.5985H260.68V110.763H260.47L243.939 11.9866H235.569V285.429H202.088V11.9866H193.718L177.186 110.763L176.977 -36.5985Z"/>
<path d="M344.681 285.429H269.14V-37H344.681V71.8146L311.2 39.6922V11.5851H302.621V236.843H311.2V57.7611L344.681 89.8835V285.429Z"/>
<path d="M353.128 285.429V-37H386.609V71.8146L395.189 55.7534V-37H428.67V285.429H395.189V124.014L386.609 140.476V285.429H353.128Z"/>
<path d="M618.477 285.429H584.786V22.828L576.416 30.8586V285.429H542.935V30.8586L534.356 22.828V285.429H500.875V-37H528.706L559.676 -7.28678L590.646 -37H618.477V285.429Z"/>
<path d="M685.347 11.9866H660.236V94.3003L672.792 70.2085V138.469L660.236 162.56V237.245H668.607V196.289L702.088 164.167V285.429H626.755V-36.5985H702.088L685.347 11.9866Z"/>
<path d="M774.297 -37H807.778V236.843H816.358V196.289L849.839 164.167V285.429H774.297V-37Z"/>
<path d="M891.767 285.429H858.286V-37H891.767V285.429Z"/>
<path d="M944.122 285.429H931.776L900.178 224.798V-37H933.659V220.782L938.054 228.813L942.239 220.782V-37H975.72V224.798L944.122 285.429Z"/>
<path d="M1042.76 11.9866H1017.65V94.3003L1030.2 70.2085V138.469L1017.65 162.56V237.245H1026.02V196.289L1059.5 164.167V285.429H984.167V-36.5985H1059.5L1042.76 11.9866Z"/>
<path d="M1207.25 285.429H1131.71V-37H1207.25V285.429ZM1173.77 236.843V11.5851H1165.19V236.843H1173.77Z"/>
<path d="M1291.24 285.429H1257.76V30.8586L1249.18 22.828V285.429H1215.7V-37H1243.53L1257.76 -23.348V-37H1291.24V285.429Z"/>
<path d="M1363.44 -36.5985H1447.15V110.763H1446.94L1430.41 11.9866H1422.04V285.429H1388.55V11.9866H1380.18L1363.65 110.763L1363.44 -36.5985Z"/>
<path d="M1573.21 285.429H1545.38L1514.41 255.715L1483.44 285.429H1455.61V-37H1489.09V225.601L1497.67 217.57V-37H1531.15V217.57L1539.52 225.601V-37H1573.21V285.429Z"/>
<path d="M1614.97 285.429H1581.49V-37H1614.97V285.429Z"/>
<path d="M1623.38 -36.5985H1707.08V110.763H1706.87L1690.34 11.9866H1681.97V285.429H1648.49V11.9866H1640.12L1623.59 110.763L1623.38 -36.5985Z"/>
<path d="M1791.08 285.429H1715.54V-37H1791.08V71.8146L1757.6 39.6922V11.5851H1749.02V236.843H1757.6V57.7611L1791.08 89.8835V285.429Z"/>
<path d="M1799.53 285.429V-37H1833.01V71.8146L1841.59 55.7534V-37H1875.07V285.429H1841.59V124.014L1833.01 140.476V285.429H1799.53Z"/>
<path d="M1917 285.429H1883.52V252.905H1917V285.429ZM1917 236.843H1883.52V-37H1917V236.843Z"/>
<path d="M77.5415 642.714H2V320.286H77.5415V429.1L44.0605 396.978V368.871H35.481V594.129H44.0605V415.047L77.5415 447.169V642.714Z"/>
<path d="M161.53 642.714H128.049V497.762L119.47 481.299V642.714H85.9886V320.286H161.53V642.714ZM128.049 429.1V368.871H119.47V413.039L128.049 429.1Z"/>
<path d="M169.977 320.687H253.68V468.049H253.47L236.939 369.272H228.569V642.714H195.088V369.272H186.718L170.186 468.049L169.977 320.687Z"/>
<path d="M337.681 642.714H262.14V320.286H337.681V429.1L304.2 396.978V368.871H295.621V594.129H304.2V415.047L337.681 447.169V642.714Z"/>
<path d="M346.128 642.714V320.286H379.609V429.1L388.189 413.039V320.286H421.67V642.714H388.189V481.299L379.609 497.762V642.714H346.128Z"/>
<path d="M611.477 642.714H577.786V380.114L569.416 388.144V642.714H535.935V388.144L527.356 380.114V642.714H493.875V320.286H521.706L552.676 349.999L583.646 320.286H611.477V642.714Z"/>
<path d="M678.347 369.272H653.236V451.586L665.792 427.494V495.754L653.236 519.846V594.531H661.607V553.575L695.088 521.452V642.714H619.755V320.687H695.088L678.347 369.272Z"/>
<path d="M767.297 320.286H800.778V594.129H809.358V553.575L842.839 521.452V642.714H767.297V320.286Z"/>
<path d="M884.767 642.714H851.286V320.286H884.767V642.714Z"/>
<path d="M937.122 642.714H924.776L893.178 582.083V320.286H926.659V578.068L931.054 586.099L935.239 578.068V320.286H968.72V582.083L937.122 642.714Z"/>
<path d="M1035.76 369.272H1010.65V451.586L1023.2 427.494V495.754L1010.65 519.846V594.531H1019.02V553.575L1052.5 521.452V642.714H977.167V320.687H1052.5L1035.76 369.272Z"/>
<path d="M1200.25 642.714H1124.71V320.286H1200.25V642.714ZM1166.77 594.129V368.871H1158.19V594.129H1166.77Z"/>
<path d="M1284.24 642.714H1250.76V388.144L1242.18 380.114V642.714H1208.7V320.286H1236.53L1250.76 333.938V320.286H1284.24V642.714Z"/>
<path d="M1356.44 320.687H1440.15V468.049H1439.94L1423.41 369.272H1415.04V642.714H1381.55V369.272H1373.18L1356.65 468.049L1356.44 320.687Z"/>
<path d="M1566.21 642.714H1538.38L1507.41 613.001L1476.44 642.714H1448.61V320.286H1482.09V582.886L1490.67 574.856V320.286H1524.15V574.856L1532.52 582.886V320.286H1566.21V642.714Z"/>
<path d="M1607.97 642.714H1574.49V320.286H1607.97V642.714Z"/>
<path d="M1616.38 320.687H1700.08V468.049H1699.87L1683.34 369.272H1674.97V642.714H1641.49V369.272H1633.12L1616.59 468.049L1616.38 320.687Z"/>
<path d="M1784.08 642.714H1708.54V320.286H1784.08V429.1L1750.6 396.978V368.871H1742.02V594.129H1750.6V415.047L1784.08 447.169V642.714Z"/>
<path d="M1792.53 642.714V320.286H1826.01V429.1L1834.59 413.039V320.286H1868.07V642.714H1834.59V481.299L1826.01 497.762V642.714H1792.53Z"/>
<path d="M1910 642.714H1876.52V610.19H1910V642.714ZM1910 594.129H1876.52V320.286H1910V594.129Z"/>
<path d="M78.5415 1000H3V677.571H78.5415V786.386L45.0605 754.264V726.157H36.481V951.415H45.0605V772.332L78.5415 804.455V1000Z"/>
<path d="M162.53 1000H129.049V855.048L120.47 838.585V1000H86.9886V677.571H162.53V1000ZM129.049 786.386V726.157H120.47V770.325L129.049 786.386Z"/>
<path d="M170.977 677.973H254.68V825.334H254.47L237.939 726.558H229.569V1000H196.088V726.558H187.718L171.186 825.334L170.977 677.973Z"/>
<path d="M338.681 1000H263.14V677.571H338.681V786.386L305.2 754.264V726.157H296.621V951.415H305.2V772.332L338.681 804.455V1000Z"/>
<path d="M347.128 1000V677.571H380.609V786.386L389.189 770.325V677.571H422.67V1000H389.189V838.585L380.609 855.048V1000H347.128Z"/>
<path d="M612.477 1000H578.786V737.399L570.416 745.43V1000H536.935V745.43L528.356 737.399V1000H494.875V677.571H522.706L553.676 707.285L584.646 677.571H612.477V1000Z"/>
<path d="M679.347 726.558H654.236V808.872L666.792 784.78V853.04L654.236 877.132V951.816H662.607V910.86L696.088 878.738V1000H620.755V677.973H696.088L679.347 726.558Z"/>
<path d="M768.297 677.571H801.778V951.415H810.358V910.86L843.839 878.738V1000H768.297V677.571Z"/>
<path d="M885.767 1000H852.286V677.571H885.767V1000Z"/>
<path d="M938.122 1000H925.776L894.178 939.369V677.571H927.659V935.354L932.054 943.384L936.239 935.354V677.571H969.72V939.369L938.122 1000Z"/>
<path d="M1036.76 726.558H1011.65V808.872L1024.2 784.78V853.04L1011.65 877.132V951.816H1020.02V910.86L1053.5 878.738V1000H978.167V677.973H1053.5L1036.76 726.558Z"/>
<path d="M1201.25 1000H1125.71V677.571H1201.25V1000ZM1167.77 951.415V726.157H1159.19V951.415H1167.77Z"/>
<path d="M1285.24 1000H1251.76V745.43L1243.18 737.399V1000H1209.7V677.571H1237.53L1251.76 691.223V677.571H1285.24V1000Z"/>
<path d="M1357.44 677.973H1441.15V825.334H1440.94L1424.41 726.558H1416.04V1000H1382.55V726.558H1374.18L1357.65 825.334L1357.44 677.973Z"/>
<path d="M1567.21 1000H1539.38L1508.41 970.287L1477.44 1000H1449.61V677.571H1483.09V940.172L1491.67 932.141V677.571H1525.15V932.141L1533.52 940.172V677.571H1567.21V1000Z"/>
<path d="M1608.97 1000H1575.49V677.571H1608.97V1000Z"/>
<path d="M1617.38 677.973H1701.08V825.334H1700.87L1684.34 726.558H1675.97V1000H1642.49V726.558H1634.12L1617.59 825.334L1617.38 677.973Z"/>
<path d="M1785.08 1000H1709.54V677.571H1785.08V786.386L1751.6 754.264V726.157H1743.02V951.415H1751.6V772.332L1785.08 804.455V1000Z"/>
<path d="M1793.53 1000V677.571H1827.01V786.386L1835.59 770.325V677.571H1869.07V1000H1835.59V838.585L1827.01 855.048V1000H1793.53Z"/>
<path d="M1911 1000H1877.52V967.476H1911V1000ZM1911 951.415H1877.52V677.571H1911V951.415Z"/>
</mask>
<path d="M84.5415 285.429H9V-37H84.5415V71.8146L51.0605 39.6922V11.5851H42.481V236.843H51.0605V57.7611L84.5415 89.8835V285.429Z" stroke="white" stroke-opacity="0.14" stroke-width="4" mask="url(#path-1-outside-1_73_211)"/>
<path d="M168.53 285.429H135.049V140.476L126.47 124.014V285.429H92.9886V-37H168.53V285.429ZM135.049 71.8146V11.5851H126.47V55.7534L135.049 71.8146Z" stroke="white" stroke-opacity="0.14" stroke-width="4" mask="url(#path-1-outside-1_73_211)"/>
<path d="M176.977 -36.5985H260.68V110.763H260.47L243.939 11.9866H235.569V285.429H202.088V11.9866H193.718L177.186 110.763L176.977 -36.5985Z" stroke="white" stroke-opacity="0.14" stroke-width="4" mask="url(#path-1-outside-1_73_211)"/>
<path d="M344.681 285.429H269.14V-37H344.681V71.8146L311.2 39.6922V11.5851H302.621V236.843H311.2V57.7611L344.681 89.8835V285.429Z" stroke="white" stroke-opacity="0.14" stroke-width="4" mask="url(#path-1-outside-1_73_211)"/>
<path d="M353.128 285.429V-37H386.609V71.8146L395.189 55.7534V-37H428.67V285.429H395.189V124.014L386.609 140.476V285.429H353.128Z" stroke="white" stroke-opacity="0.14" stroke-width="4" mask="url(#path-1-outside-1_73_211)"/>
<path d="M618.477 285.429H584.786V22.828L576.416 30.8586V285.429H542.935V30.8586L534.356 22.828V285.429H500.875V-37H528.706L559.676 -7.28678L590.646 -37H618.477V285.429Z" stroke="white" stroke-opacity="0.14" stroke-width="4" mask="url(#path-1-outside-1_73_211)"/>
<path d="M685.347 11.9866H660.236V94.3003L672.792 70.2085V138.469L660.236 162.56V237.245H668.607V196.289L702.088 164.167V285.429H626.755V-36.5985H702.088L685.347 11.9866Z" stroke="white" stroke-opacity="0.14" stroke-width="4" mask="url(#path-1-outside-1_73_211)"/>
<path d="M774.297 -37H807.778V236.843H816.358V196.289L849.839 164.167V285.429H774.297V-37Z" stroke="white" stroke-opacity="0.14" stroke-width="4" mask="url(#path-1-outside-1_73_211)"/>
<path d="M891.767 285.429H858.286V-37H891.767V285.429Z" stroke="white" stroke-opacity="0.14" stroke-width="4" mask="url(#path-1-outside-1_73_211)"/>
<path d="M944.122 285.429H931.776L900.178 224.798V-37H933.659V220.782L938.054 228.813L942.239 220.782V-37H975.72V224.798L944.122 285.429Z" stroke="white" stroke-opacity="0.14" stroke-width="4" mask="url(#path-1-outside-1_73_211)"/>
<path d="M1042.76 11.9866H1017.65V94.3003L1030.2 70.2085V138.469L1017.65 162.56V237.245H1026.02V196.289L1059.5 164.167V285.429H984.167V-36.5985H1059.5L1042.76 11.9866Z" stroke="white" stroke-opacity="0.14" stroke-width="4" mask="url(#path-1-outside-1_73_211)"/>
<path d="M1207.25 285.429H1131.71V-37H1207.25V285.429ZM1173.77 236.843V11.5851H1165.19V236.843H1173.77Z" stroke="white" stroke-opacity="0.14" stroke-width="4" mask="url(#path-1-outside-1_73_211)"/>
<path d="M1291.24 285.429H1257.76V30.8586L1249.18 22.828V285.429H1215.7V-37H1243.53L1257.76 -23.348V-37H1291.24V285.429Z" stroke="white" stroke-opacity="0.14" stroke-width="4" mask="url(#path-1-outside-1_73_211)"/>
<path d="M1363.44 -36.5985H1447.15V110.763H1446.94L1430.41 11.9866H1422.04V285.429H1388.55V11.9866H1380.18L1363.65 110.763L1363.44 -36.5985Z" stroke="white" stroke-opacity="0.14" stroke-width="4" mask="url(#path-1-outside-1_73_211)"/>
<path d="M1573.21 285.429H1545.38L1514.41 255.715L1483.44 285.429H1455.61V-37H1489.09V225.601L1497.67 217.57V-37H1531.15V217.57L1539.52 225.601V-37H1573.21V285.429Z" stroke="white" stroke-opacity="0.14" stroke-width="4" mask="url(#path-1-outside-1_73_211)"/>
<path d="M1614.97 285.429H1581.49V-37H1614.97V285.429Z" stroke="white" stroke-opacity="0.14" stroke-width="4" mask="url(#path-1-outside-1_73_211)"/>
<path d="M1623.38 -36.5985H1707.08V110.763H1706.87L1690.34 11.9866H1681.97V285.429H1648.49V11.9866H1640.12L1623.59 110.763L1623.38 -36.5985Z" stroke="white" stroke-opacity="0.14" stroke-width="4" mask="url(#path-1-outside-1_73_211)"/>
<path d="M1791.08 285.429H1715.54V-37H1791.08V71.8146L1757.6 39.6922V11.5851H1749.02V236.843H1757.6V57.7611L1791.08 89.8835V285.429Z" stroke="white" stroke-opacity="0.14" stroke-width="4" mask="url(#path-1-outside-1_73_211)"/>
<path d="M1799.53 285.429V-37H1833.01V71.8146L1841.59 55.7534V-37H1875.07V285.429H1841.59V124.014L1833.01 140.476V285.429H1799.53Z" stroke="white" stroke-opacity="0.14" stroke-width="4" mask="url(#path-1-outside-1_73_211)"/>
<path d="M1917 285.429H1883.52V252.905H1917V285.429ZM1917 236.843H1883.52V-37H1917V236.843Z" stroke="white" stroke-opacity="0.14" stroke-width="4" mask="url(#path-1-outside-1_73_211)"/>
<path d="M77.5415 642.714H2V320.286H77.5415V429.1L44.0605 396.978V368.871H35.481V594.129H44.0605V415.047L77.5415 447.169V642.714Z" stroke="white" stroke-opacity="0.14" stroke-width="4" mask="url(#path-1-outside-1_73_211)"/>
<path d="M161.53 642.714H128.049V497.762L119.47 481.299V642.714H85.9886V320.286H161.53V642.714ZM128.049 429.1V368.871H119.47V413.039L128.049 429.1Z" stroke="white" stroke-opacity="0.14" stroke-width="4" mask="url(#path-1-outside-1_73_211)"/>
<path d="M169.977 320.687H253.68V468.049H253.47L236.939 369.272H228.569V642.714H195.088V369.272H186.718L170.186 468.049L169.977 320.687Z" stroke="white" stroke-opacity="0.14" stroke-width="4" mask="url(#path-1-outside-1_73_211)"/>
<path d="M337.681 642.714H262.14V320.286H337.681V429.1L304.2 396.978V368.871H295.621V594.129H304.2V415.047L337.681 447.169V642.714Z" stroke="white" stroke-opacity="0.14" stroke-width="4" mask="url(#path-1-outside-1_73_211)"/>
<path d="M346.128 642.714V320.286H379.609V429.1L388.189 413.039V320.286H421.67V642.714H388.189V481.299L379.609 497.762V642.714H346.128Z" stroke="white" stroke-opacity="0.14" stroke-width="4" mask="url(#path-1-outside-1_73_211)"/>
<path d="M611.477 642.714H577.786V380.114L569.416 388.144V642.714H535.935V388.144L527.356 380.114V642.714H493.875V320.286H521.706L552.676 349.999L583.646 320.286H611.477V642.714Z" stroke="white" stroke-opacity="0.14" stroke-width="4" mask="url(#path-1-outside-1_73_211)"/>
<path d="M678.347 369.272H653.236V451.586L665.792 427.494V495.754L653.236 519.846V594.531H661.607V553.575L695.088 521.452V642.714H619.755V320.687H695.088L678.347 369.272Z" stroke="white" stroke-opacity="0.14" stroke-width="4" mask="url(#path-1-outside-1_73_211)"/>
<path d="M767.297 320.286H800.778V594.129H809.358V553.575L842.839 521.452V642.714H767.297V320.286Z" stroke="white" stroke-opacity="0.14" stroke-width="4" mask="url(#path-1-outside-1_73_211)"/>
<path d="M884.767 642.714H851.286V320.286H884.767V642.714Z" stroke="white" stroke-opacity="0.14" stroke-width="4" mask="url(#path-1-outside-1_73_211)"/>
<path d="M937.122 642.714H924.776L893.178 582.083V320.286H926.659V578.068L931.054 586.099L935.239 578.068V320.286H968.72V582.083L937.122 642.714Z" stroke="white" stroke-opacity="0.14" stroke-width="4" mask="url(#path-1-outside-1_73_211)"/>
<path d="M1035.76 369.272H1010.65V451.586L1023.2 427.494V495.754L1010.65 519.846V594.531H1019.02V553.575L1052.5 521.452V642.714H977.167V320.687H1052.5L1035.76 369.272Z" stroke="white" stroke-opacity="0.14" stroke-width="4" mask="url(#path-1-outside-1_73_211)"/>
<path d="M1200.25 642.714H1124.71V320.286H1200.25V642.714ZM1166.77 594.129V368.871H1158.19V594.129H1166.77Z" stroke="white" stroke-opacity="0.14" stroke-width="4" mask="url(#path-1-outside-1_73_211)"/>
<path d="M1284.24 642.714H1250.76V388.144L1242.18 380.114V642.714H1208.7V320.286H1236.53L1250.76 333.938V320.286H1284.24V642.714Z" stroke="white" stroke-opacity="0.14" stroke-width="4" mask="url(#path-1-outside-1_73_211)"/>
<path d="M1356.44 320.687H1440.15V468.049H1439.94L1423.41 369.272H1415.04V642.714H1381.55V369.272H1373.18L1356.65 468.049L1356.44 320.687Z" stroke="white" stroke-opacity="0.14" stroke-width="4" mask="url(#path-1-outside-1_73_211)"/>
<path d="M1566.21 642.714H1538.38L1507.41 613.001L1476.44 642.714H1448.61V320.286H1482.09V582.886L1490.67 574.856V320.286H1524.15V574.856L1532.52 582.886V320.286H1566.21V642.714Z" stroke="white" stroke-opacity="0.14" stroke-width="4" mask="url(#path-1-outside-1_73_211)"/>
<path d="M1607.97 642.714H1574.49V320.286H1607.97V642.714Z" stroke="white" stroke-opacity="0.14" stroke-width="4" mask="url(#path-1-outside-1_73_211)"/>
<path d="M1616.38 320.687H1700.08V468.049H1699.87L1683.34 369.272H1674.97V642.714H1641.49V369.272H1633.12L1616.59 468.049L1616.38 320.687Z" stroke="white" stroke-opacity="0.14" stroke-width="4" mask="url(#path-1-outside-1_73_211)"/>
<path d="M1784.08 642.714H1708.54V320.286H1784.08V429.1L1750.6 396.978V368.871H1742.02V594.129H1750.6V415.047L1784.08 447.169V642.714Z" stroke="white" stroke-opacity="0.14" stroke-width="4" mask="url(#path-1-outside-1_73_211)"/>
<path d="M1792.53 642.714V320.286H1826.01V429.1L1834.59 413.039V320.286H1868.07V642.714H1834.59V481.299L1826.01 497.762V642.714H1792.53Z" stroke="white" stroke-opacity="0.14" stroke-width="4" mask="url(#path-1-outside-1_73_211)"/>
<path d="M1910 642.714H1876.52V610.19H1910V642.714ZM1910 594.129H1876.52V320.286H1910V594.129Z" stroke="white" stroke-opacity="0.14" stroke-width="4" mask="url(#path-1-outside-1_73_211)"/>
<path d="M78.5415 1000H3V677.571H78.5415V786.386L45.0605 754.264V726.157H36.481V951.415H45.0605V772.332L78.5415 804.455V1000Z" stroke="white" stroke-opacity="0.14" stroke-width="4" mask="url(#path-1-outside-1_73_211)"/>
<path d="M162.53 1000H129.049V855.048L120.47 838.585V1000H86.9886V677.571H162.53V1000ZM129.049 786.386V726.157H120.47V770.325L129.049 786.386Z" stroke="white" stroke-opacity="0.14" stroke-width="4" mask="url(#path-1-outside-1_73_211)"/>
<path d="M170.977 677.973H254.68V825.334H254.47L237.939 726.558H229.569V1000H196.088V726.558H187.718L171.186 825.334L170.977 677.973Z" stroke="white" stroke-opacity="0.14" stroke-width="4" mask="url(#path-1-outside-1_73_211)"/>
<path d="M338.681 1000H263.14V677.571H338.681V786.386L305.2 754.264V726.157H296.621V951.415H305.2V772.332L338.681 804.455V1000Z" stroke="white" stroke-opacity="0.14" stroke-width="4" mask="url(#path-1-outside-1_73_211)"/>
<path d="M347.128 1000V677.571H380.609V786.386L389.189 770.325V677.571H422.67V1000H389.189V838.585L380.609 855.048V1000H347.128Z" stroke="white" stroke-opacity="0.14" stroke-width="4" mask="url(#path-1-outside-1_73_211)"/>
<path d="M612.477 1000H578.786V737.399L570.416 745.43V1000H536.935V745.43L528.356 737.399V1000H494.875V677.571H522.706L553.676 707.285L584.646 677.571H612.477V1000Z" stroke="white" stroke-opacity="0.14" stroke-width="4" mask="url(#path-1-outside-1_73_211)"/>
<path d="M679.347 726.558H654.236V808.872L666.792 784.78V853.04L654.236 877.132V951.816H662.607V910.86L696.088 878.738V1000H620.755V677.973H696.088L679.347 726.558Z" stroke="white" stroke-opacity="0.14" stroke-width="4" mask="url(#path-1-outside-1_73_211)"/>
<path d="M768.297 677.571H801.778V951.415H810.358V910.86L843.839 878.738V1000H768.297V677.571Z" stroke="white" stroke-opacity="0.14" stroke-width="4" mask="url(#path-1-outside-1_73_211)"/>
<path d="M885.767 1000H852.286V677.571H885.767V1000Z" stroke="white" stroke-opacity="0.14" stroke-width="4" mask="url(#path-1-outside-1_73_211)"/>
<path d="M938.122 1000H925.776L894.178 939.369V677.571H927.659V935.354L932.054 943.384L936.239 935.354V677.571H969.72V939.369L938.122 1000Z" stroke="white" stroke-opacity="0.14" stroke-width="4" mask="url(#path-1-outside-1_73_211)"/>
<path d="M1036.76 726.558H1011.65V808.872L1024.2 784.78V853.04L1011.65 877.132V951.816H1020.02V910.86L1053.5 878.738V1000H978.167V677.973H1053.5L1036.76 726.558Z" stroke="white" stroke-opacity="0.14" stroke-width="4" mask="url(#path-1-outside-1_73_211)"/>
<path d="M1201.25 1000H1125.71V677.571H1201.25V1000ZM1167.77 951.415V726.157H1159.19V951.415H1167.77Z" stroke="white" stroke-opacity="0.14" stroke-width="4" mask="url(#path-1-outside-1_73_211)"/>
<path d="M1285.24 1000H1251.76V745.43L1243.18 737.399V1000H1209.7V677.571H1237.53L1251.76 691.223V677.571H1285.24V1000Z" stroke="white" stroke-opacity="0.14" stroke-width="4" mask="url(#path-1-outside-1_73_211)"/>
<path d="M1357.44 677.973H1441.15V825.334H1440.94L1424.41 726.558H1416.04V1000H1382.55V726.558H1374.18L1357.65 825.334L1357.44 677.973Z" stroke="white" stroke-opacity="0.14" stroke-width="4" mask="url(#path-1-outside-1_73_211)"/>
<path d="M1567.21 1000H1539.38L1508.41 970.287L1477.44 1000H1449.61V677.571H1483.09V940.172L1491.67 932.141V677.571H1525.15V932.141L1533.52 940.172V677.571H1567.21V1000Z" stroke="white" stroke-opacity="0.14" stroke-width="4" mask="url(#path-1-outside-1_73_211)"/>
<path d="M1608.97 1000H1575.49V677.571H1608.97V1000Z" stroke="white" stroke-opacity="0.14" stroke-width="4" mask="url(#path-1-outside-1_73_211)"/>
<path d="M1617.38 677.973H1701.08V825.334H1700.87L1684.34 726.558H1675.97V1000H1642.49V726.558H1634.12L1617.59 825.334L1617.38 677.973Z" stroke="white" stroke-opacity="0.14" stroke-width="4" mask="url(#path-1-outside-1_73_211)"/>
<path d="M1785.08 1000H1709.54V677.571H1785.08V786.386L1751.6 754.264V726.157H1743.02V951.415H1751.6V772.332L1785.08 804.455V1000Z" stroke="white" stroke-opacity="0.14" stroke-width="4" mask="url(#path-1-outside-1_73_211)"/>
<path d="M1793.53 1000V677.571H1827.01V786.386L1835.59 770.325V677.571H1869.07V1000H1835.59V838.585L1827.01 855.048V1000H1793.53Z" stroke="white" stroke-opacity="0.14" stroke-width="4" mask="url(#path-1-outside-1_73_211)"/>
<path d="M1911 1000H1877.52V967.476H1911V1000ZM1911 951.415H1877.52V677.571H1911V951.415Z" stroke="white" stroke-opacity="0.14" stroke-width="4" mask="url(#path-1-outside-1_73_211)"/>
</g>
</svg>
