<svg width="122" height="122" viewBox="0 0 122 122" fill="none" xmlns="http://www.w3.org/2000/svg">
<mask id="mask0_440_153" style="mask-type:alpha" maskUnits="userSpaceOnUse" x="0" y="0" width="122" height="122">
<g clip-path="url(#clip0_440_153)">
<path d="M60.9996 6.77783C50.2754 6.77783 39.7921 9.95791 30.8753 15.9159C21.9585 21.8739 15.0087 30.3423 10.9048 40.2501C6.80084 50.1579 5.72706 61.0602 7.81923 71.5783C9.91141 82.0964 15.0756 91.7578 22.6587 99.341C30.2418 106.924 39.9033 112.088 50.4214 114.18C60.9394 116.273 71.8417 115.199 81.7495 111.095C91.6574 106.991 100.126 100.041 106.084 91.1243C112.042 82.2075 115.222 71.7242 115.222 61.0001C115.222 46.6194 109.509 32.8278 99.3405 22.6592C89.1719 12.4905 75.3802 6.77783 60.9996 6.77783ZM60.9996 108.444C51.616 108.444 42.4431 105.662 34.6409 100.449C26.8387 95.2354 20.7576 87.8256 17.1666 79.1563C13.5757 70.4869 12.6361 60.9474 14.4668 51.7441C16.2974 42.5408 20.8161 34.087 27.4513 27.4518C34.0865 20.8165 42.5403 16.2979 51.7436 14.4672C60.947 12.6366 70.4865 13.5761 79.1558 17.1671C87.8251 20.7581 95.2349 26.8391 100.448 34.6413C105.661 42.4435 108.444 51.6164 108.444 61.0001C108.444 73.5831 103.445 85.6508 94.5479 94.5483C85.6503 103.446 73.5826 108.444 60.9996 108.444Z" fill="#696969"/>
<path d="M75.6742 60.9997C75.6742 58.0089 74.7869 55.0853 73.1246 52.599C71.4623 50.1127 69.0997 48.1755 66.336 47.0325C63.5722 45.8896 60.5314 45.5922 57.5986 46.1782C54.6658 46.7641 51.9727 48.207 49.8603 50.3242C47.7478 52.4414 46.311 55.1377 45.7316 58.0718C45.1523 61.006 45.4564 64.046 46.6056 66.8072C47.7548 69.5684 49.6973 71.9266 52.1873 73.5834C54.6773 75.2401 57.6029 76.1208 60.5936 76.1141C64.5964 76.1051 68.4321 74.5088 71.2593 71.6752C74.0865 68.8417 75.6742 65.0024 75.6742 60.9997ZM60.5936 70.8274C58.6811 70.8339 56.8094 70.2744 55.2141 69.2194C53.6189 68.1644 52.3714 66.6609 51.6289 64.8984C50.8863 63.1359 50.6818 61.1931 51.041 59.3145C51.4003 57.436 52.3074 55.7058 53.6479 54.3417C54.9885 52.9776 56.7027 52.0406 58.5747 51.6487C60.4467 51.2568 62.3928 51.4275 64.168 52.1393C65.9431 52.8512 67.468 54.0723 68.5506 55.6489C69.6333 57.2256 70.2252 59.0873 70.252 60.9997C70.2699 62.281 70.0336 63.5531 69.5567 64.7425C69.0797 65.9319 68.3717 67.0149 67.4735 67.9289C66.5753 68.8428 65.5048 69.5696 64.3238 70.0671C63.1429 70.5647 61.8751 70.8231 60.5936 70.8274Z" fill="#696969"/>
<path d="M60.5925 25.1798H60.9992V19.7915H60.5925C49.798 19.7971 39.4331 24.0207 31.709 31.5611C23.9849 39.1016 19.5133 49.362 19.248 60.1532H24.6703C24.9262 50.7942 28.8224 41.9042 35.5307 35.3731C42.2389 28.8421 51.2301 25.1852 60.5925 25.1798Z" fill="#696969"/>
<path d="M101.938 60.9995H96.5499C96.5731 70.3341 92.9653 79.3118 86.4893 86.0345C80.0132 92.7572 71.1766 96.6979 61.8477 97.0234V102.446C72.612 102.111 82.8225 97.5956 90.3133 89.858C97.8042 82.1204 101.986 71.7691 101.972 60.9995H101.938Z" fill="#696969"/>
<path d="M61.0003 37.2779V31.9912H60.5937C53.0308 32.0042 45.7677 34.9497 40.3322 40.2083C34.8967 45.4668 31.7124 52.6285 31.4492 60.1868H36.8714C37.1167 54.0612 39.7238 48.2683 44.1463 44.0227C48.5688 39.7772 54.4631 37.4085 60.5937 37.4134L61.0003 37.2779Z" fill="#696969"/>
<path d="M61.8477 84.7217V90.144C69.355 89.8123 76.445 86.597 81.6406 81.1678C86.8362 75.7386 89.7368 68.5142 89.7382 60.9995H84.316C84.3245 67.0797 81.998 72.931 77.8169 77.3455C73.6358 81.7599 67.9193 84.4004 61.8477 84.7217Z" fill="#696969"/>
</g>
</mask>
<g mask="url(#mask0_440_153)">
<rect width="117.114" height="148.304" transform="matrix(0.996867 -0.0790991 -0.0820902 0.996625 14.877 -16.2432)" fill="#D9D9D9"/>
<rect width="117.114" height="148.304" transform="matrix(0.996867 -0.0790991 -0.0820902 0.996625 14.877 -16.2432)" fill="url(#paint0_linear_440_153)"/>
</g>
<defs>
<linearGradient id="paint0_linear_440_153" x1="0" y1="74.152" x2="117.114" y2="74.152" gradientUnits="userSpaceOnUse">
<stop stop-color="#666666"/>
<stop offset="0.610634" stop-color="#CCCCCC"/>
<stop offset="1" stop-color="#666666"/>
</linearGradient>
<clipPath id="clip0_440_153">
<rect width="122" height="122" fill="white"/>
</clipPath>
</defs>
</svg>
