<svg width="141" height="155" viewBox="0 0 141 155" fill="none" xmlns="http://www.w3.org/2000/svg">
<path d="M113.912 116.008C112.486 96.9545 131.519 87.1685 140.97 84.4141C82.7713 72.6188 71.7861 117.467 74.0544 154.084C77.6838 132.049 101.976 119.357 113.912 116.008Z" fill="url(#paint0_linear_84_305)"/>
<path d="M80.805 86.3136C82.1685 67.2551 102.423 60.3442 112.174 58.9951C56.313 38.8525 38.9156 81.6233 35.8287 118.181C42.6274 96.9087 68.509 87.8887 80.805 86.3136Z" fill="url(#paint1_linear_84_305)"/>
<path d="M53.7922 49.0926C62.0844 31.8785 83.4599 32.9197 93.0222 35.26C48.5183 -4.05437 16.5809 29.2925 0.236713 62.1381C14.3974 44.8698 41.7814 46.0246 53.7922 49.0926Z" fill="url(#paint2_linear_84_305)"/>
<defs>
<linearGradient id="paint0_linear_84_305" x1="140.97" y1="118.288" x2="73.7817" y2="118.288" gradientUnits="userSpaceOnUse">
<stop stop-color="#666666"/>
<stop offset="0.610634" stop-color="#CCCCCC"/>
<stop offset="1" stop-color="#666666"/>
</linearGradient>
<linearGradient id="paint1_linear_84_305" x1="107.243" y1="92.5077" x2="40.7704" y2="82.7259" gradientUnits="userSpaceOnUse">
<stop stop-color="#666666"/>
<stop offset="0.610634" stop-color="#CCCCCC"/>
<stop offset="1" stop-color="#666666"/>
</linearGradient>
<linearGradient id="paint2_linear_84_305" x1="76.0854" y1="64.5953" x2="17.8987" y2="31.0012" gradientUnits="userSpaceOnUse">
<stop stop-color="#666666"/>
<stop offset="0.610634" stop-color="#CCCCCC"/>
<stop offset="1" stop-color="#666666"/>
</linearGradient>
</defs>
</svg>
