<svg width="144" height="152" viewBox="0 0 144 152" fill="none" xmlns="http://www.w3.org/2000/svg">
<path d="M45.8028 115.435C42.904 100.123 25.845 96.4314 17.818 96.2566C61.176 74.6796 79.2966 107.691 85.2391 137.016C77.7287 120.424 55.9123 115.553 45.8028 115.435Z" fill="#383838"/>
<path d="M45.8028 115.435C42.904 100.123 25.845 96.4314 17.818 96.2566C61.176 74.6796 79.2966 107.691 85.2391 137.016C77.7287 120.424 55.9123 115.553 45.8028 115.435Z" fill="url(#paint0_linear_37_91)"/>
<path d="M45.8028 115.435C42.904 100.123 25.845 96.4314 17.818 96.2566C61.176 74.6796 79.2966 107.691 85.2391 137.016C77.7287 120.424 55.9123 115.553 45.8028 115.435Z" fill="black" fill-opacity="0.64"/>
<path d="M65.6164 85.0524C60.5194 70.3263 43.1046 69.1573 35.1377 70.153C74.8924 42.4935 97.6261 72.5152 107.775 100.663C97.9285 85.3402 75.6355 83.6977 65.6164 85.0524Z" fill="#383838"/>
<path d="M65.6164 85.0524C60.5194 70.3263 43.1046 69.1573 35.1377 70.153C74.8924 42.4935 97.6261 72.5152 107.775 100.663C97.9285 85.3402 75.6355 83.6977 65.6164 85.0524Z" fill="url(#paint1_linear_37_91)"/>
<path d="M65.6164 85.0524C60.5194 70.3263 43.1046 69.1573 35.1377 70.153C74.8924 42.4935 97.6261 72.5152 107.775 100.663C97.9285 85.3402 75.6355 83.6977 65.6164 85.0524Z" fill="black" fill-opacity="0.64"/>
<path d="M79.0389 50.0284C68.8728 38.2179 52.2534 43.5501 45.2144 47.4122C71.975 7.047 104.174 26.5755 123.983 49.0007C109.182 38.3861 87.8532 45.0762 79.0389 50.0284Z" fill="#383838"/>
<path d="M79.0389 50.0284C68.8728 38.2179 52.2534 43.5501 45.2144 47.4122C71.975 7.047 104.174 26.5755 123.983 49.0007C109.182 38.3861 87.8532 45.0762 79.0389 50.0284Z" fill="url(#paint2_linear_37_91)"/>
<path d="M79.0389 50.0284C68.8728 38.2179 52.2534 43.5501 45.2144 47.4122C71.975 7.047 104.174 26.5755 123.983 49.0007C109.182 38.3861 87.8532 45.0762 79.0389 50.0284Z" fill="black" fill-opacity="0.64"/>
<defs>
<linearGradient id="paint0_linear_37_91" x1="24.9682" y1="122.942" x2="77.8979" y2="108.759" gradientUnits="userSpaceOnUse">
<stop stop-color="#666666"/>
<stop offset="0.610634" stop-color="#CCCCCC"/>
<stop offset="1" stop-color="#666666"/>
</linearGradient>
<linearGradient id="paint1_linear_37_91" x1="46.0967" y1="95.5126" x2="96.3977" y2="73.7754" gradientUnits="userSpaceOnUse">
<stop stop-color="#666666"/>
<stop offset="0.610634" stop-color="#CCCCCC"/>
<stop offset="1" stop-color="#666666"/>
</linearGradient>
<linearGradient id="paint2_linear_37_91" x1="64.7491" y1="66.9469" x2="103.496" y2="28.1997" gradientUnits="userSpaceOnUse">
<stop stop-color="#666666"/>
<stop offset="0.610634" stop-color="#CCCCCC"/>
<stop offset="1" stop-color="#666666"/>
</linearGradient>
</defs>
</svg>
